<?xml version="1.0" encoding="UTF-8"?>
<svg id="Capa_1" data-name="Capa 1" xmlns="http://www.w3.org/2000/svg" version="1.1" viewBox="0 0 222 71">
  <defs>
    <style>
      .cls-1 {
        fill: none;
      }

      .cls-1, .cls-2, .cls-3 {
        stroke-width: 0px;
      }

      .cls-2 {
        fill: #d094f7;
      }

      .cls-3 {
        fill: #272727;
      }
    </style>
  </defs>
  <g>
    <g>
      <path class="cls-3" d="M52.29,20.71c-3.17,0-5.81,1.03-7.83,3.05-2.03,1.98-3.05,4.66-3.05,7.96v.2c0,3.3,1.03,5.97,3.06,7.96,2.05,1.97,4.75,2.96,8.03,2.96,3.08,0,5.67-.71,7.7-2.12.11-.08.18-.21.18-.35v-4.49c0-.17-.1-.32-.26-.39-.16-.07-.34-.04-.46.08-1.6,1.49-3.88,2.21-6.96,2.21s-5.29-1.67-5.62-4.39h15c.22,0,.41-.17.43-.4.04-.53.08-1.14.08-1.76,0-2.96-.97-5.47-2.88-7.46-1.87-2.03-4.36-3.06-7.41-3.06ZM48.71,26.85c1.02-.79,2.22-1.19,3.58-1.19,1.28,0,2.34.38,3.24,1.18.74.65,1.17,1.42,1.27,2.29h-9.6c.17-.88.66-1.63,1.5-2.28Z"/>
      <path class="cls-3" d="M77.21,30.95l6.79-9.24c.09-.13.11-.3.04-.45-.07-.14-.22-.23-.38-.23h-5.25c-.14,0-.27.07-.35.18l-4.02,5.57-4.06-5.57c-.08-.11-.21-.18-.35-.18h-5.21c-.16,0-.31.09-.38.23-.07.14-.06.32.04.45l6.79,9.28-7.47,10.4c-.09.13-.11.3-.03.45.07.14.22.23.38.23h5.17c.14,0,.27-.07.35-.18l4.78-6.65,4.78,6.65c.08.11.21.18.35.18h5.17c.16,0,.31-.09.38-.23.07-.14.06-.31-.03-.45l-7.47-10.44Z"/>
      <path class="cls-3" d="M99.18,21.37h-4.35v-8.17c0-.24-.19-.43-.43-.43h-4.81c-.24,0-.43.19-.43.43v21.91c0,4.74,2.46,7.24,7.12,7.24.92,0,1.62-.04,2.08-.13.2-.04.35-.21.35-.42v-4.25c0-.12-.05-.23-.14-.31-.09-.08-.19-.13-.32-.11l-.47.03c-.35.03-.63.05-.82.05-1.35,0-2.14-.41-2.14-2.54v-8.66h4.35c.24,0,.43-.19.43-.43v-3.79c0-.24-.19-.43-.43-.43Z"/>
      <path class="cls-3" d="M114.24,21.21h-4.35v-1.65c0-2.12.78-2.54,2.14-2.54.19,0,.46.02.8.04l.5.03c.11,0,.23-.03.32-.11.09-.08.14-.19.14-.31v-4.25c0-.21-.15-.38-.35-.42-.46-.08-1.16-.13-2.08-.13-4.66,0-7.12,2.5-7.12,7.24v21.91c0,.24.19.43.43.43h4.81c.24,0,.43-.19.43-.43v-15.18h4.35c.24,0,.43-.19.43-.43v-3.79c0-.24-.19-.43-.43-.43Z"/>
      <path class="cls-3" d="M127.96,19.38c-3.17,0-5.81,1.03-7.83,3.05-2.03,1.98-3.05,4.66-3.05,7.96v.2c0,3.3,1.03,5.97,3.06,7.96,2.05,1.97,4.75,2.96,8.03,2.96,3.08,0,5.67-.71,7.7-2.12.11-.08.18-.21.18-.35v-4.49c0-.17-.1-.32-.26-.39-.15-.07-.34-.04-.46.08-1.6,1.49-3.88,2.21-6.96,2.21s-5.29-1.67-5.62-4.39h15c.22,0,.41-.17.43-.4.04-.53.08-1.14.08-1.76,0-2.96-.97-5.47-2.88-7.46-1.87-2.03-4.36-3.06-7.41-3.06ZM124.38,25.52c1.02-.79,2.22-1.19,3.58-1.19,1.28,0,2.34.38,3.24,1.18.74.65,1.17,1.42,1.27,2.29h-9.6c.17-.88.66-1.63,1.5-2.28Z"/>
      <path class="cls-3" d="M178.06,30.08c-.84-.58-1.56-1.01-2.14-1.28-.64-.3-1.52-.7-2.66-1.13-.61-.24-1.3-.49-1.75-.63-.25-.11-.37-.18-.5-.26-.09-.05-.19-.11-.29-.16-.42-.26-.6-.53-.6-.92,0-.35,0-1.29,2.5-1.29,1.78,0,3.47.49,5.02,1.46.13.08.3.09.43.01.14-.08.22-.22.22-.37v-4.37c0-.15-.07-.28-.2-.36-1.51-.96-3.36-1.43-5.68-1.43-2.15,0-3.99.55-5.47,1.65-1.47,1.12-2.21,2.68-2.21,4.63,0,2.72,1.53,4.77,4.56,6.09.89.35,2.58,1.03,3.42,1.41.45.16.85.37,1.23.58.93.48,1.05.91,1.05,1.26,0,1.35-2.08,1.49-2.98,1.49-2.92,0-5.35-.87-7.2-2.57-.13-.11-.31-.14-.46-.08-.16.07-.26.22-.26.39v4.73c0,.14.07.27.19.35,2.22,1.51,4.72,2.24,7.65,2.24s5.02-.64,6.42-1.92c1.44-1.35,2.14-2.89,2.14-4.72,0-2.19-.75-3.67-2.43-4.8Z"/>
      <path class="cls-3" d="M201.85,22.45c-1.87-2.03-4.36-3.06-7.41-3.06s-5.81,1.03-7.83,3.05c-2.02,1.98-3.05,4.66-3.05,7.96v.2c0,3.3,1.03,5.97,3.06,7.96,2.05,1.97,4.75,2.96,8.03,2.96,3.08,0,5.67-.71,7.7-2.12.11-.08.18-.21.18-.35v-4.49c0-.17-.1-.32-.26-.39-.16-.07-.34-.04-.46.08-1.6,1.49-3.88,2.21-6.96,2.21s-5.29-1.67-5.62-4.39h15c.22,0,.41-.17.43-.39.04-.53.08-1.14.08-1.76,0-2.96-.97-5.47-2.88-7.46ZM189.36,27.8c.17-.88.66-1.63,1.5-2.28,1.02-.79,2.22-1.19,3.58-1.19,1.28,0,2.34.38,3.24,1.18.74.65,1.17,1.42,1.27,2.29h-9.6Z"/>
      <path class="cls-3" d="M156.99,22.25c-1.78-1.53-4.1-2.31-6.89-2.31s-5.08.75-6.93,2.3c-1.86,1.56-2.8,3.84-2.8,6.78v12.06c0,.24.19.43.43.43h4.85c.24,0,.43-.19.43-.43v-11.74c0-2.67,1.41-4.14,3.98-4.14s3.98,1.42,3.98,4.1v11.78c0,.24.19.43.43.43h4.85c.24,0,.43-.19.43-.43v-12.18c0-2.84-.93-5.08-2.75-6.65Z"/>
      <path class="cls-3" d="M34.68,22.69c-1.78-1.53-4.1-2.31-6.89-2.31s-5.08.75-6.93,2.3c-1.86,1.56-2.8,3.84-2.8,6.78v12.06c0,.24.19.43.43.43h4.85c.24,0,.43-.19.43-.43v-11.74c0-2.67,1.41-4.14,3.98-4.14s3.98,1.42,3.98,4.1v11.78c0,.24.19.43.43.43h4.85c.24,0,.43-.19.43-.43v-12.18c0-2.84-.93-5.08-2.75-6.65Z"/>
    </g>
    <g>
      <path class="cls-3" d="M18.07,59.46v-5.47h4.03v1.34h-2.54v.75h2.37v1.22h-2.37v.83h2.6v1.32h-4.09Z"/>
      <path class="cls-3" d="M24.82,59.46v-5.69l3.62,2.96v-2.74h1.43v5.69l-3.62-2.98v2.76h-1.43Z"/>
      <path class="cls-3" d="M32.2,59.46l3.03-5.84,3.03,5.84h-1.55l-.35-.71h-2.24l-.35.71h-1.55ZM34.61,57.59h1.24l-.62-1.26-.62,1.26Z"/>
      <path class="cls-3" d="M40.59,59.46v-5.47h2.54c.42,0,.76.13,1.04.4.28.26.42.6.42,1,0,.53-.26.92-.7,1.1.71.15,1.1.66,1.1,1.36,0,.46-.16.85-.48,1.16-.31.3-.71.46-1.18.46h-2.75ZM42.08,56.17h.72c.27,0,.46-.2.46-.49,0-.27-.2-.48-.46-.48h-.72v.97ZM42.08,58.23h.92c.32,0,.56-.23.56-.53,0-.29-.23-.51-.57-.51h-.92v1.04Z"/>
      <path class="cls-3" d="M47.54,59.46v-5.47h1.49v4.12h2.08v1.35h-3.57Z"/>
      <path class="cls-3" d="M53.6,59.46v-5.47h4.03v1.34h-2.54v.75h2.37v1.22h-2.37v.83h2.6v1.32h-4.09Z"/>
      <path class="cls-3" d="M64.37,59.46l3.03-5.84,3.03,5.84h-1.55l-.35-.71h-2.24l-.35.71h-1.55ZM66.78,57.59h1.24l-.62-1.26-.62,1.26Z"/>
      <path class="cls-3" d="M77.06,57.61c.53.4,1.17.6,1.93.6.59,0,.89-.13.89-.4,0-.1-.06-.18-.2-.25-.13-.07-.36-.15-.68-.24-.32-.09-.56-.17-.71-.23-.79-.29-1.18-.81-1.18-1.54,0-.51.2-.91.61-1.2.42-.29.91-.43,1.49-.43.63,0,1.18.12,1.64.37v1.39c-.42-.29-.93-.43-1.56-.43-.51,0-.76.1-.76.3,0,.13.1.25.34.35.12.05.23.09.31.12l.4.11c.18.05.3.08.36.1.53.17.89.36,1.09.61.2.24.3.56.3.97,0,1.07-.75,1.73-2.27,1.73-.78,0-1.45-.15-1.99-.44v-1.49Z"/>
      <path class="cls-3" d="M83.22,59.46l3.03-5.84,3.03,5.84h-1.55l-.35-.71h-2.24l-.35.71h-1.55ZM85.63,57.59h1.24l-.62-1.26-.62,1.26Z"/>
      <path class="cls-3" d="M91.6,59.46v-5.47h3.95v1.34h-2.46v.85h2.24v1.26h-2.24v2.02h-1.49Z"/>
      <path class="cls-3" d="M98.15,59.46v-5.47h4.03v1.34h-2.54v.75h2.37v1.22h-2.37v.83h2.6v1.32h-4.09Z"/>
      <path class="cls-3" d="M104.9,59.46v-5.47h2.49c.54,0,1,.18,1.39.55.38.37.57.81.57,1.33,0,.7-.37,1.3-.93,1.56l1.36,2.02h-1.71l-1.11-1.7h-.56v1.7h-1.49ZM106.39,56.56h.83c.4,0,.64-.23.64-.64,0-.35-.23-.58-.52-.58h-.96v1.22Z"/>
      <path class="cls-3" d="M117.16,59.46v-5.47h2.22c.95,0,1.67.25,2.17.76.51.51.76,1.17.76,1.98s-.25,1.49-.75,1.98c-.49.49-1.22.74-2.17.74h-2.23ZM118.65,58.11h.64c.63,0,1.06-.14,1.25-.42.21-.27.27-.55.27-.96s-.05-.67-.27-.93c-.21-.26-.63-.4-1.26-.4h-.63v2.71Z"/>
      <path class="cls-3" d="M124.91,59.46v-5.47h1.49v5.47h-1.49Z"/>
      <path class="cls-3" d="M133.67,54.35v1.41c-.48-.34-1.04-.52-1.68-.52-.42,0-.77.14-1.06.42-.29.28-.43.63-.43,1.06s.14.78.43,1.06c.29.28.64.42,1.06.42.49,0,.86-.16,1.14-.47v-.37h-1.41v-1.24h2.7v2.2c-.51.73-1.41,1.22-2.42,1.22-.83,0-1.54-.27-2.12-.8-.57-.53-.86-1.2-.86-2.01s.29-1.47.86-2.01c.58-.54,1.29-.81,2.12-.81.65,0,1.21.15,1.68.44Z"/>
      <path class="cls-3" d="M137.06,59.46v-5.47h1.49v5.47h-1.49Z"/>
      <path class="cls-3" d="M142.43,59.46v-4.12h-1.47v-1.35h4.41v1.35h-1.44v4.12h-1.49Z"/>
      <path class="cls-3" d="M146.58,59.46l3.03-5.84,3.03,5.84h-1.55l-.35-.71h-2.24l-.35.71h-1.55ZM148.99,57.59h1.24l-.62-1.26-.62,1.26Z"/>
      <path class="cls-3" d="M154.97,59.46v-5.47h1.49v4.12h2.08v1.35h-3.57Z"/>
      <path class="cls-3" d="M165.59,59.46v-5.47h3.95v1.34h-2.46v.85h2.24v1.26h-2.24v2.02h-1.49Z"/>
      <path class="cls-3" d="M172.08,53.99h1.49v2.96c0,.9.35,1.24.96,1.24s.96-.34.96-1.24v-2.96h1.49v3.11c0,.79-.24,1.4-.7,1.81s-1.05.62-1.76.62-1.29-.2-1.76-.62-.7-1.02-.7-1.81v-3.11Z"/>
      <path class="cls-3" d="M180.78,59.46v-4.12h-1.47v-1.35h4.41v1.35h-1.44v4.12h-1.49Z"/>
      <path class="cls-3" d="M186.03,53.99h1.49v2.96c0,.9.35,1.24.96,1.24s.96-.34.96-1.24v-2.96h1.49v3.11c0,.79-.24,1.4-.7,1.81s-1.05.62-1.76.62-1.29-.2-1.76-.62-.7-1.02-.7-1.81v-3.11Z"/>
      <path class="cls-3" d="M193.66,59.46v-5.47h2.49c.54,0,1,.18,1.39.55.38.37.57.81.57,1.33,0,.7-.37,1.3-.93,1.56l1.36,2.02h-1.71l-1.11-1.7h-.56v1.7h-1.49ZM195.15,56.56h.83c.4,0,.64-.23.64-.64,0-.35-.23-.58-.52-.58h-.96v1.22Z"/>
      <path class="cls-3" d="M200.89,59.46v-5.47h4.03v1.34h-2.54v.75h2.37v1.22h-2.37v.83h2.6v1.32h-4.09Z"/>
    </g>
    <path class="cls-2" d="M37.87,13.85c-2.47-2.67-6.17-4.2-10.16-4.2s-7.69,1.53-10.16,4.2c-.4.43-.59.99-.52,1.55.07.58.41,1.1.92,1.43.38.25.84.38,1.31.38.67,0,1.3-.26,1.72-.73,1.62-1.74,4.06-2.75,6.71-2.75s5.1,1,6.71,2.75c.75.81,2.08.96,3.03.35.52-.33.85-.86.93-1.43.07-.56-.12-1.12-.51-1.55Z"/>
  </g>
  <rect class="cls-1" width="222" height="71"/>
</svg>