<svg xmlns="http://www.w3.org/2000/svg" width="217" height="90" viewBox="0 0 217 90">
    <path fill="#00644D" fill-rule="evenodd" d="M105.936 43.053l-.08-.108-.037-.04c-.888-1.272-1.335-2.57-1.335-3.84 0-.831.169-1.641.547-2.44.968-2.07 3.21-3.697 5.308-3.865 3.267-.25 5.787 1.597 6.315 2.012 0 0 4.746 4.561 5.652 5.437.07-.106 5.776-7.93 6.358-8.747-1.076-1.076-4.198-4.172-4.198-4.177-.213-.22-5.596-5.515-14-4.9-7.14.515-13.114 4.724-15.634 10.956-.77 1.95-1.175 3.97-1.175 6.04 0 4.043 1.568 7.958 4.377 10.986l18.791 18.537.081.09.044.045c.889 1.284 1.347 2.576 1.347 3.85 0 .829-.188 1.649-.557 2.427-.977 2.083-3.203 3.712-5.32 3.877-3.256.246-5.775-1.597-6.305-2.015 0 0-5.004-4.815-5.948-5.715-.563.806-5.702 8.12-6.25 8.91a729.826 729.826 0 0 1 4.378 4.297c.23.227 5.596 5.515 14.01 4.899 7.138-.52 13.122-4.73 15.625-10.965a16.141 16.141 0 0 0 1.175-6.041c0-4.037-1.561-7.943-4.378-10.977l-18.79-18.533zM82.007 68.499V1.372h-12.49v67.274h-.006c0 .002.007.017.007.022v.009c.21 4.714 1.967 11.704 11.447 20.88.773-1.092 6.808-9.567 7.293-10.244-4.603-4.435-5.894-8.52-6.225-10.65 0 0-.008-.058-.026-.164zm117.277-45.53c-2.215 1.489-4.136 3.795-5.777 6.93v-8.381h-11.213v66.545h12.037V44.05c0-4.477.567-7.482 1.703-9.031 1.123-1.538 3.124-2.318 5.966-2.318 1.212 0 2.253.06 3.114.15.862.092 1.631.243 2.34.44l9.283-12.385c-1.228.052-11.139-2.195-17.453 2.062zm-38.311 47.8c0 3.02-.482 5.226-1.452 6.643-.977 1.417-2.52 2.117-4.629 2.117-2.133 0-4.7-.7-5.677-2.117-.967-1.417-1.445-3.623-1.445-6.643V40.76c0-3.02.478-5.212 1.445-6.589.977-1.378 3.544-2.055 5.677-2.055 2.11 0 3.652.677 4.629 2.055.97 1.377 1.452 3.57 1.452 6.59v30.008zm-6.08-48.66c-6.199 0-11.787 1.836-14.739 5.522-2.95 3.675-4.421 9.37-4.421 17.088v22.206c0 7.755 1.471 13.463 4.421 17.113 2.952 3.668 8.54 5.502 14.738 5.502 6.18 0 10.738-1.834 13.688-5.502 2.951-3.65 4.422-9.358 4.422-17.113V44.719c0-7.677-1.489-13.357-4.449-17.062-2.969-3.696-7.525-5.548-13.66-5.548zM0 11.106h13.92V88.29h12.413V11.106h10.69V1.422H0v9.684zm44.703 11.898h-.082l-6.78 9.528v.158h6.862v55.618h12.402V22.984H44.703v.02zM51.87 0c-3.965 0-7.185 3.174-7.185 7.088 0 3.9 3.22 7.086 7.185 7.086 3.953 0 7.184-3.186 7.184-7.086 0-3.914-3.23-7.088-7.184-7.088z"/>
</svg>
